# xmcd CD database file
#
# Track frame offsets:
#	150
#	8811
#	33163
#	52386
#	70189
#	89669
#	101612
#	119604
#	135805
#	152502
#	169812
#	195224
#	212078
#	220292
#	235942
#	256029
#	270873
#	288915
#	314973
#
# Disc length: 4415 seconds
#
# Revision: 0
# Processed by: cddbd v1.5.1PL0 Copyright (c) Steve Scherf et al.
# Submitted via: CDex 1.51
#
DISCID=0c113d13
DTITLE=STARVING ARTIST CREW - UP POP THE SAC
DYEAR=2003
DGENRE=Hip-Hop
TTITLE0=intro
TTITLE1=the ill na na
TTITLE2=sac swaggrr
TTITLE3=feed the homeless
TTITLE4=the kick clap
TTITLE5=saggy pants
TTITLE6=grateful dead
TTITLE7=organic chemistry
TTITLE8=motivate
TTITLE9=artistry original
TTITLE10=b-boy buffet
TTITLE11=the promise
TTITLE12=vic to the hailers
TTITLE13=up pop the sac
TTITLE14=five day trippin'
TTITLE15=game of steel
TTITLE16=96 west ferry
TTITLE17=dedicated
TTITLE18=swing
EXTD=YEAR: 2003
EXTT0=
EXTT1=
EXTT2=
EXTT3=
EXTT4=
EXTT5=
EXTT6=
EXTT7=
EXTT8=
EXTT9=
EXTT10=
EXTT11=
EXTT12=
EXTT13=
EXTT14=
EXTT15=
EXTT16=
EXTT17=
EXTT18=
PLAYORDER=
